<svg class="zoom-body-selector" width="326" height="705" viewBox="0 0 326 705" fill="none" xmlns="http://www.w3.org/2000/svg">
<path class="selection" d="M288.457 356.479C287.367 360.859 287.267 376.269 284.147 376.269C276.657 376.279 280.657 359.779 278.377 355.099C278.357 355.049 278.287 355.049 278.257 355.079C275.187 358.239 275.257 371.379 272.027 372.179C266.327 373.579 268.367 357.159 268.517 352.569C269.297 328.789 264.937 306.149 253.837 285.059C240.327 259.399 237.227 230.479 227.777 203.559C226.527 199.989 225.147 196.469 223.147 191.069C212.017 218.529 207.297 244.629 212.777 272.329C215.647 286.869 218.027 301.469 222.587 315.639C234.387 352.269 233.147 389.289 226.297 426.639C223.057 444.319 221.197 462.259 218.957 480.109C217.267 493.639 220.317 506.819 222.617 520.019C228.007 550.939 221.657 581.209 217.427 611.559C215.557 624.979 216.287 638.359 217.007 651.729C217.677 664.189 227.047 672.499 232.827 682.509C236.627 689.089 233.917 696.939 226.857 699.759C213.997 704.899 207.497 702.839 201.607 691.269C193.277 674.909 188.627 658.209 191.467 639.169C194.527 618.699 189.047 598.419 184.977 578.389C181.207 559.839 179.797 541.379 183.127 522.679C184.217 516.569 182.397 510.799 181.207 504.919C172.457 461.649 167.937 417.849 164.657 373.889C164.397 370.359 166.287 366.039 161.797 363.599C158.267 365.229 158.877 368.399 158.977 371.029C159.827 393.439 154.867 415.239 152.287 437.289C149.337 462.489 148.367 487.969 140.627 512.459C138.677 518.629 141.357 525.039 141.937 531.339C143.597 549.109 141.617 566.629 137.497 583.879C131.367 609.549 132.037 635.489 132.357 661.609C132.537 676.069 123.737 688.459 115.307 699.899C112.017 704.359 95.1566 701.179 89.8266 696.119C83.7566 690.349 88.3066 685.309 91.7266 681.339C113.317 656.299 108.637 627.199 104.187 598.609C99.0966 565.899 97.0266 533.589 104.057 500.799C108.037 482.229 101.787 463.659 100.017 445.099C97.4766 418.479 90.1766 392.409 92.0766 365.239C93.5766 343.889 99.1766 323.599 104.577 303.109C114.007 267.389 117.757 231.599 102.577 196.269C102.167 195.309 101.607 194.419 99.8666 191.149C95.7566 204.339 91.2766 215.559 88.8466 227.209C84.6366 247.399 78.4266 266.819 69.4866 285.329C59.2966 306.409 53.8966 328.389 55.2166 351.879C55.3366 353.989 55.1066 356.119 55.0366 358.229C54.9166 361.779 55.2966 375.459 51.2566 375.779C46.7466 376.139 47.0566 361.759 46.4566 358.819C46.2666 357.869 45.7566 355.709 45.4066 353.819C45.3266 353.379 44.6866 353.339 44.5666 353.779C42.6766 360.679 44.9466 377.259 39.5466 376.659C33.1166 375.949 36.7166 360.039 34.4466 354.649C34.4266 354.609 34.3566 354.619 34.3566 354.669C33.4866 359.019 32.7866 362.749 31.9866 366.449C31.4466 368.949 30.1266 375.529 26.9766 375.359C23.8466 375.199 23.4566 368.459 23.2766 366.009C22.9866 362.019 23.1966 357.979 23.1966 352.639C23.1966 352.589 23.1266 352.579 23.1066 352.619C21.6966 354.959 20.7766 356.299 20.0566 357.739C18.6366 360.599 16.7566 370.859 11.5766 369.069C7.25656 367.579 11.2066 358.009 12.0266 354.889C13.5366 349.129 16.1166 343.659 17.9366 337.969C18.6266 335.819 20.8366 333.259 18.3166 331.159C16.3766 329.539 14.3866 331.529 12.4866 332.219C11.1566 332.699 9.86658 333.369 8.49658 333.589C5.93658 334.009 3.33659 333.799 2.25659 330.969C1.34659 328.559 3.11657 326.919 4.89657 325.789C12.0366 321.239 18.9766 316.209 26.5666 312.549C32.9066 309.489 36.6466 305.169 38.3966 298.639C39.0366 296.259 40.3866 293.959 40.5466 291.559C43.3966 249.809 63.0266 212.329 70.8666 171.869C72.5466 163.219 73.6666 154.459 75.3166 145.799C79.6666 122.899 91.5966 112.139 114.477 110.069C118.687 109.689 122.877 108.979 127.057 108.269C135.677 106.799 139.977 101.769 139.707 92.8685C139.417 82.9485 138.777 73.6585 131.747 65.1385C127.077 59.4685 124.087 51.4085 130.917 43.9585C133.797 40.8185 132.467 36.5185 132.587 32.7185C133.137 14.6485 145.377 1.93854 162.187 2.07854C178.367 2.21854 190.547 14.9485 190.977 32.4285C191.107 37.7385 192.007 42.2785 194.807 47.2585C198.477 53.7785 195.847 61.4185 190.867 66.7185C183.207 74.8685 183.817 84.9185 183.377 94.5585C183.057 101.659 187.887 106.339 194.837 107.879C199.987 109.019 205.277 109.699 210.547 110.139C230.037 111.779 244.187 122.749 247.407 141.999C253.377 177.619 261.957 212.389 275.067 246.089C279.977 258.699 279.657 272.479 281.397 285.719C283.637 302.799 293.707 312.499 308.207 319.259C310.437 320.299 312.637 321.549 314.527 323.109C317.447 325.519 324.757 331.229 323.047 334.299C320.797 338.359 314.377 333.539 310.737 332.079C308.887 331.339 306.947 329.329 305.007 331.379C303.247 333.239 304.837 335.379 305.427 337.319C307.367 343.709 310.607 349.459 311.907 356.269C312.637 360.079 315.307 369.079 311.267 370.149C306.877 371.319 304.887 361.219 303.757 358.409C303.187 356.999 302.417 355.659 301.037 352.969C300.897 352.689 300.467 352.789 300.467 353.099C300.487 358.279 300.647 361.849 300.397 365.389C300.197 368.239 300.127 378.249 296.417 378.169C293.417 378.099 292.037 368.549 291.527 366.039C291.527 366.039 290.517 355.039 289.947 353.769C289.377 352.499 288.437 356.499 288.437 356.499L288.457 356.479Z" stroke="#e5e5e5" stroke-width="2" stroke-miterlimit="10"/>
<path class="selection back-knee-right articulation" data-health-questionnaire-bodypart-param="back-knee-right" d="M211.427 480.119L185.697 480.159C181.107 480.159 177.257 484.259 178.157 488.759L183.107 514.379C183.187 514.759 183.437 517.659 183.447 518.049C183.497 519.289 183.357 520.099 183.127 522.679C182.847 525.759 181.977 529.539 181.717 532.909C181.387 537.159 184.747 540.789 189.007 540.769L216.957 540.639C221.187 540.619 224.517 537.019 224.177 532.799C223.767 527.629 222.687 520.229 221.017 510.789C219.377 501.579 218.427 497.129 218.537 487.389C218.587 483.329 215.487 480.109 211.427 480.119Z" fill="#FFFFFF" stroke="#B995D8" stroke-width="2" stroke-miterlimit="10"/>
<path class="selection back-shoulder-left articulation" data-health-questionnaire-bodypart-param="back-shoulder-left" d="M89.6073 118.838C98.1773 111.088 114.437 110.028 114.437 110.028C120.667 109.358 122.957 108.978 127.137 108.778C128.417 108.718 129.577 109.228 130.417 110.078C131.617 111.278 131.877 113.138 131.267 114.728L100.887 193.808C100.637 194.428 99.7173 194.298 99.6573 193.628C96.1773 156.238 95.0873 131.278 90.8873 122.688C90.8873 122.688 89.1673 119.228 89.5973 118.838H89.6073Z" fill="#FFFFFF" stroke="#B995D8" stroke-width="2" stroke-linejoin="round"/>
<path class="selection back-elbow-left articulation" data-health-questionnaire-bodypart-param="back-elbow-left" d="M87.3374 217.919L64.7774 210.359C62.6474 209.649 60.3474 210.819 59.6674 212.959L50.3074 242.709C49.6474 244.799 50.7874 247.029 52.8574 247.719L77.0274 255.819C79.1974 256.549 81.5274 255.319 82.1574 253.119C83.5974 248.099 85.9374 239.899 86.5174 237.489C87.2874 234.289 88.5274 227.989 89.9274 222.739C90.4774 220.699 89.3274 218.589 87.3174 217.919H87.3374Z" fill="#FFFFFF" stroke="#B995D8" stroke-width="2" stroke-linejoin="round"/>
<path class="selection back-head" data-health-questionnaire-bodypart-param="back-head" d="M186.237 73.8686C187.247 70.8986 190.507 67.1086 190.507 67.1086C190.507 67.1086 196.117 61.5486 196.607 54.7786C196.607 54.7786 197.087 50.0986 193.457 44.5486C191.697 41.8586 190.987 32.4186 190.987 32.4186C190.987 32.4186 191.217 2.6286 162.047 2.0086C134.477 1.4186 132.627 31.3686 132.627 31.3686C132.627 31.3686 133.097 41.1386 132.077 42.6286C130.287 45.2686 121.447 52.3386 131.747 65.1286C131.747 65.1286 135.417 69.2986 137.037 74.1486C137.217 74.6886 137.637 75.1086 138.187 75.2586C142.467 76.3986 161.777 80.8686 184.647 75.3086C185.387 75.1286 185.987 74.5786 186.237 73.8586V73.8686Z" fill="#FFFFFF" stroke="#B995D8" stroke-width="2" stroke-linejoin="round"/>
<path class="selection back-upper-arm-left" data-health-questionnaire-bodypart-param="back-upper-arm-left" d="M86.6667 122.499C91.4267 132.409 92.3867 157.509 95.6967 193.339C95.7767 194.199 96.0067 195.039 96.3767 195.819C96.4967 196.069 96.6267 196.319 96.7767 196.559C97.3267 197.489 97.4867 198.609 97.1467 199.639L91.9767 215.299L62.1367 205.319C62.1367 205.319 68.9967 183.379 70.8767 171.869C72.7567 160.359 72.9567 159.029 75.3267 145.799C77.6967 132.569 83.2267 125.499 83.2267 125.499L85.7467 122.409C86.0367 121.979 86.5067 122.139 86.6867 122.509L86.6667 122.499Z" fill="#FFFFFF" stroke="#B995D8" stroke-width="2" stroke-linejoin="round"/>
<path class="selection back-forearm-left" data-health-questionnaire-bodypart-param="back-forearm-left" d="M52.2371 251.709L75.7971 259.589C77.9071 260.299 79.0171 262.599 78.2371 264.689C76.5271 269.239 73.4771 277.079 70.2371 283.829C66.3871 291.869 66.0171 292.449 63.2571 300.159C62.5271 302.199 60.2671 303.249 58.2371 302.489L42.5671 296.629C40.9671 296.029 40.0371 294.379 40.3271 292.689C40.4971 291.689 40.6671 290.359 40.7671 288.599C41.0671 283.439 42.5071 271.699 46.8871 254.629C47.4871 252.299 49.9471 250.959 52.2271 251.729L52.2371 251.709Z" fill="#FFFFFF" stroke="#B995D8" stroke-width="2" stroke-linejoin="round"/>
<path class="selection back-shoulder-right articulation" data-health-questionnaire-bodypart-param="back-shoulder-right" d="M234.247 118.838C225.677 111.088 209.417 110.028 209.417 110.028C203.187 109.358 200.897 108.978 196.717 108.778C195.437 108.718 194.277 109.228 193.437 110.078C192.237 111.278 191.977 113.138 192.587 114.728L222.967 193.808C223.217 194.428 224.137 194.298 224.197 193.628C227.677 156.238 228.767 131.278 232.967 122.688C232.967 122.688 234.687 119.228 234.257 118.838H234.247Z" fill="#FFFFFF" stroke="#B995D8" stroke-width="2" stroke-linejoin="round"/>
<path class="selection back-elbow-right articulation" data-health-questionnaire-bodypart-param="back-elbow-right" d="M263.587 212.698C263.007 210.778 260.987 209.728 259.087 210.358L236.527 217.918C234.387 218.638 233.117 220.998 233.697 223.178C235.077 228.348 236.577 234.368 237.337 237.498C237.917 239.918 240.207 248.248 241.647 253.258C242.277 255.458 244.667 256.548 246.837 255.828L271.377 247.668C273.517 246.958 274.617 244.678 273.787 242.588C271.757 237.458 267.957 227.218 263.597 212.698H263.587Z" fill="#FFFFFF" stroke="#B995D8" stroke-width="2" stroke-linejoin="round"/>
<path class="selection back-upper-arm-right" data-health-questionnaire-bodypart-param="back-upper-arm-right" d="M237.197 122.499C232.437 132.409 231.477 157.509 228.167 193.339C228.087 194.199 227.857 195.039 227.487 195.819C227.367 196.069 227.237 196.319 227.087 196.559C226.537 197.489 226.357 199.279 226.697 200.309L231.527 215.369L261.437 205.369C261.437 205.369 254.947 181.869 252.767 170.409C250.637 159.239 250.007 157.779 247.907 144.499C245.747 130.829 240.647 125.489 240.647 125.489L238.127 122.399C237.837 121.969 237.367 122.129 237.187 122.499H237.197Z" fill="#FFFFFF" stroke="#B995D8" stroke-width="2" stroke-linejoin="round"/>
<path class="selection back-forearm-right" data-health-questionnaire-bodypart-param="back-forearm-right" d="M271.627 251.709L248.067 259.589C245.957 260.299 244.457 262.859 245.237 264.939C246.947 269.489 249.027 275.599 252.617 282.779C256.607 290.759 257.797 292.589 260.567 300.299C261.297 302.339 263.597 303.239 265.627 302.479L281.297 296.619C282.897 296.019 283.167 294.379 282.877 292.699C282.707 291.699 282.077 289.499 281.777 287.759C279.887 276.879 280.677 268.569 277.627 254.529C277.117 252.179 273.917 250.949 271.637 251.709H271.627Z" fill="#FFFFFF" stroke="#B995D8" stroke-width="2" stroke-linejoin="round"/>
<path class="selection back-foot-right articulation" data-health-questionnaire-bodypart-param="back-foot-right" d="M195.947 632.799C193.837 632.749 192.037 634.309 191.787 636.409C191.367 639.989 190.777 645.289 190.627 648.259C190.377 653.129 190.897 662.139 193.587 671.219C193.587 671.219 198.767 689.059 205.667 697.709C205.667 697.709 209.577 702.989 216.887 702.419C221.477 702.059 229.187 699.969 232.237 695.749C235.287 691.529 235.317 686.919 232.707 682.319C230.507 678.449 224.717 670.599 224.717 670.599C224.717 670.599 216.767 660.709 216.887 649.909L216.377 637.069C216.297 634.959 214.587 633.279 212.477 633.219C207.967 633.099 200.437 632.909 195.947 632.799V632.799Z" fill="#FFFFFF" stroke="#B995D8" stroke-width="2" stroke-linejoin="round"/>
<path class="selection back-calf-right" data-health-questionnaire-bodypart-param="back-calf-right" d="M195.577 628.858L213.047 629.288C214.747 629.328 216.167 627.988 216.207 626.288C216.307 621.928 216.927 612.598 219.727 596.048C223.387 574.388 224.637 556.718 224.757 548.558C224.787 546.388 223.037 544.628 220.867 544.628L185.227 544.778C183.007 544.778 181.227 546.628 181.317 548.848C181.567 555.028 182.507 567.758 186.047 583.348C190.667 603.688 192.297 616.248 192.387 625.598C192.407 627.378 193.817 628.818 195.597 628.858H195.577Z" fill="#FFFFFF" stroke="#B995D8" stroke-width="2" stroke-linejoin="round"/>
<path class="selection back-knee-left articulation" data-health-questionnaire-bodypart-param="back-knee-left" d="M140.126 519.979C140.446 523.059 141.906 529.959 142.146 533.029C142.486 537.279 139.186 540.789 134.926 540.769L106.976 540.639C102.746 540.619 99.5164 536.979 99.8464 532.759C100.256 527.589 100.576 519.889 102.256 510.439C103.896 501.229 105.716 493.549 105.386 487.389C105.166 483.329 108.436 480.109 112.496 480.119L138.226 480.159C142.816 480.159 147.196 484.419 146.296 488.919C146.296 488.919 142.936 506.229 140.846 511.609C140.846 511.609 139.556 514.669 140.106 519.979H140.126Z" fill="#FFFFFF" stroke="#B995D8" stroke-width="2" stroke-miterlimit="10"/>
<path class="selection back-buttock-left articulation" data-health-questionnaire-bodypart-param="back-buttock-left" d="M100.607 318.109L101.747 314.399C102.307 312.559 104.577 311.889 106.047 313.139L158.477 357.749C159.947 358.999 161.097 361.599 161.007 363.529C160.947 364.839 160.657 364.249 160.427 364.479C159.897 365.029 159.547 365.479 159.257 366.269C159.257 366.269 158.527 367.669 159.037 371.809C159.037 371.809 159.157 372.579 159.097 374.099C159.097 374.099 159.457 385.139 157.677 398.939C157.387 401.189 155.267 401.929 153.077 402.429C152.267 402.609 114.047 410.619 94.6473 360.099C93.7373 357.719 93.2773 353.719 93.6573 351.199C94.7773 343.799 97.0673 330.509 100.617 318.109H100.607Z" fill="#FFFFFF" stroke="#B995D8" stroke-width="2" stroke-linejoin="round"/>
<path class="selection back-foot-left articulation" data-health-questionnaire-bodypart-param="back-foot-left" d="M117.587 696.809C128.657 682.189 131.157 671.539 131.157 671.539C132.847 666.699 132.427 654.249 132.187 649.379C132.037 646.409 132.257 640.349 132.147 636.409C132.087 634.299 130.097 632.749 127.987 632.799C123.497 632.909 115.967 633.109 111.457 633.219C109.347 633.269 108.007 634.839 107.917 636.949L107.407 645.019C106.097 659.859 99.3167 670.579 99.3167 670.579C99.3167 670.579 96.9567 675.239 89.7467 683.709C84.7967 689.519 87.0067 693.609 90.3667 696.619C90.3667 696.619 98.5567 702.959 111.617 701.809C111.617 701.809 114.297 701.409 115.447 699.669L117.317 697.109L117.577 696.799L117.587 696.809Z" fill="#FFFFFF" stroke="#B995D8" stroke-width="2" stroke-linejoin="round"/>
<path class="selection back-calf-left" data-health-questionnaire-bodypart-param="back-calf-left" d="M129.407 628.878L110.757 629.288C109.057 629.328 107.697 628.048 107.657 626.338C107.557 621.978 106.347 612.598 103.777 596.008C100.417 574.258 99.7074 556.728 99.5874 548.578C99.5574 546.408 100.897 544.608 103.067 544.618L138.707 544.768C140.927 544.768 142.507 546.768 142.417 548.998C142.167 555.178 141.257 567.868 137.607 583.408C133.317 601.698 132.697 616.168 132.387 625.778C132.327 627.558 131.167 628.838 129.387 628.878H129.407Z" fill="#FFFFFF" stroke="#B995D8" stroke-width="2" stroke-linejoin="round"/>
<path class="selection back-thigh-left" data-health-questionnaire-bodypart-param="back-thigh-left" d="M92.0672 365.048C90.3272 383.438 95.9772 415.608 95.9772 415.608C97.5472 425.308 100.517 450.638 104.087 472.958C104.387 474.858 105.947 476.298 107.867 476.288L144.527 476.198C146.467 476.198 148.347 474.638 148.537 472.708C152.997 428.558 154.527 421.078 154.527 421.078L156.707 405.678C156.707 405.678 135.137 409.528 121.497 400.148C104.937 388.758 101.387 383.358 92.1171 364.188L92.0471 365.048H92.0672Z" fill="#FFFFFF" stroke="#B995D8" stroke-width="2" stroke-linejoin="round"/>
<path class="selection back-buttock-right articulation" data-health-questionnaire-bodypart-param="back-buttock-right" d="M223.407 318.428L222.197 314.348C221.637 312.508 219.167 311.888 217.697 313.138L165.267 357.748C163.797 358.998 162.647 361.598 162.737 363.528C162.797 364.838 163.087 364.248 163.317 364.478C163.847 365.028 164.197 365.478 164.487 366.268C164.487 366.268 165.217 367.668 164.707 371.808C164.707 371.808 164.587 372.578 164.647 374.098C164.647 374.098 165.407 384.888 166.687 398.808C166.897 401.068 168.477 401.938 170.657 402.428C171.467 402.608 209.687 410.618 229.087 360.098C229.997 357.718 230.347 353.728 230.077 351.198C229.287 343.838 227.467 330.828 223.387 318.428H223.407Z" fill="#FFFFFF" stroke="#B995D8" stroke-width="2" stroke-linejoin="round"/>
<path class="selection back-thigh-right" data-health-questionnaire-bodypart-param="back-thigh-right" d="M231.417 366.518C232.327 392.678 228.167 415.668 228.167 415.668C226.597 425.368 222.347 448.788 219.847 473.128C219.647 475.038 217.787 476.288 215.867 476.288L179.207 476.198C177.267 476.198 175.747 474.738 175.467 472.828C169.497 431.318 168.887 421.568 168.887 421.568L167.227 405.688C167.227 405.688 188.587 409.538 202.227 400.158C218.787 388.768 222.077 384.108 231.347 364.938L231.427 366.528L231.417 366.518Z" fill="#FFFFFF" stroke="#B995D8" stroke-width="2" stroke-linejoin="round"/>
<path class="selection back-torso" data-health-questionnaire-bodypart-param="back-torso" d="M135.377 104.679C136.027 104.129 136.737 103.419 137.257 102.599C137.697 101.909 138.497 101.529 139.307 101.529H183.677C184.447 101.529 185.177 101.859 185.677 102.449C186.347 103.239 187.427 104.389 188.677 105.309C189.487 105.899 189.817 106.939 189.517 107.889L188.717 110.379C188.097 112.289 188.157 114.349 188.877 116.229L219.807 196.589C220.187 197.579 220.207 198.679 219.847 199.679C218.267 204.119 213.757 217.489 211.907 230.409C208.987 250.859 211.727 265.989 211.727 265.989C211.727 265.989 216.187 291.729 219.277 303.799C219.667 305.309 219.157 306.899 217.977 307.909L164.577 353.279C163.057 354.569 160.817 354.569 159.297 353.279L105.777 307.739C104.587 306.729 104.087 305.129 104.487 303.619C106.127 297.519 110.277 281.049 111.847 265.739C113.307 251.419 113.177 239.799 111.417 227.539C111.417 227.539 109.777 214.179 103.967 199.609C103.547 198.549 103.527 197.369 103.937 196.309L134.957 116.249C135.707 114.319 135.747 112.189 135.067 110.239L134.407 108.309C133.957 107.009 134.327 105.549 135.377 104.669V104.679Z" fill="#FFFFFF" stroke="#B995D8" stroke-width="2" stroke-linejoin="round"/>
<path class="selection back-neck articulation" data-health-questionnaire-bodypart-param="back-neck" d="M183.626 97.6287L139.296 97.5987C140.696 92.3487 138.356 79.3687 138.356 79.3687C138.356 79.3687 159.016 85.3687 184.466 79.3687C184.466 79.3687 182.866 90.7687 183.626 97.6287Z" fill="#FFFFFF" stroke="#B995D8" stroke-width="2" stroke-linejoin="round"/>
<path class="selection back-hand-left articulation" data-health-questionnaire-bodypart-param="back-hand-left" d="M41.7968 300.539C39.9468 299.849 37.8268 300.649 37.0068 302.449C35.0168 306.799 31.6868 310.049 26.5568 312.519C18.9668 316.179 12.0368 321.209 4.8868 325.759C3.1068 326.889 1.33682 328.529 2.24682 330.939C3.31682 333.769 5.92681 333.979 8.48681 333.559C9.85681 333.329 11.1468 332.659 12.4768 332.189C14.3868 331.499 16.3768 329.509 18.3068 331.129C20.8268 333.229 18.6168 335.789 17.9268 337.939C16.1068 343.629 13.5268 349.099 12.0168 354.859C11.1968 357.979 7.25683 367.549 11.5668 369.039C16.7368 370.829 18.6168 360.569 20.0468 357.709C20.7668 356.269 21.6868 354.929 23.0968 352.589C23.1268 352.549 23.1868 352.559 23.1868 352.609C23.1868 357.949 22.9768 361.979 23.2668 365.979C23.4468 368.429 23.8368 375.169 26.9668 375.329C30.1168 375.489 31.4468 368.919 31.9768 366.419C32.7668 362.719 33.4768 358.989 34.3468 354.639C34.3468 354.589 34.4268 354.579 34.4468 354.619C36.7268 360.019 33.1168 375.919 39.5468 376.629C44.9468 377.229 42.6768 360.649 44.5668 353.749C44.6868 353.309 45.3168 353.349 45.4068 353.789C45.7568 355.689 46.2668 357.849 46.4568 358.799C47.0568 361.749 46.7468 376.119 51.2568 375.759C55.5268 375.419 54.8668 360.199 55.0668 357.719C55.2268 355.789 55.3068 353.859 55.2268 351.929C54.4868 334.169 56.5568 322.399 59.7168 310.979C60.2468 309.069 59.2268 307.069 57.3668 306.379L41.7868 300.539H41.7968Z" fill="#FFFFFF" stroke="#B995D8" stroke-width="2" stroke-linejoin="round"/>
<path class="selection back-hand-right articulation" data-health-questionnaire-bodypart-param="back-hand-right" d="M285.437 299.198C288.207 304.598 293.727 312.508 308.217 319.268C310.447 320.308 312.647 321.558 314.537 323.118C317.457 325.528 324.767 331.238 323.057 334.308C320.807 338.368 314.387 333.548 310.747 332.088C308.897 331.348 306.957 329.338 305.017 331.388C303.257 333.248 304.847 335.388 305.437 337.328C307.377 343.718 310.617 349.468 311.917 356.278C312.647 360.088 315.317 369.088 311.277 370.158C306.887 371.328 304.897 361.228 303.767 358.418C303.197 357.008 302.427 355.668 301.047 352.978C300.907 352.698 300.477 352.798 300.477 353.108C300.497 358.288 300.657 361.858 300.407 365.398C300.207 368.248 300.137 378.258 296.427 378.178C293.427 378.108 292.047 368.558 291.537 366.048C291.537 366.048 290.527 355.048 289.957 353.778C289.387 352.498 288.447 356.508 288.447 356.508C287.357 360.888 287.257 376.298 284.137 376.298C276.647 376.308 280.647 359.808 278.367 355.128C278.347 355.078 278.277 355.078 278.247 355.108C275.177 358.268 275.247 371.408 272.017 372.208C266.317 373.608 268.387 357.188 268.507 352.598C269.157 328.708 265.087 314.688 263.007 307.698L285.427 299.208L285.437 299.198Z" fill="#FFFFFF" stroke="#B995D8" stroke-width="2" stroke-linejoin="round"/>
</svg>
