
<svg data-health-questionnaire-target="bodySymptomsSvg" class="zoom-body-selector" width="326" height="705" viewBox="0 0 326 705" fill="none" xmlns="http://www.w3.org/2000/svg">
<path d="M288.457 356.479C287.367 360.859 287.267 376.269 284.147 376.269C276.657 376.279 280.657 359.779 278.377 355.099C278.357 355.049 278.287 355.049 278.257 355.079C275.187 358.239 275.257 371.379 272.027 372.179C266.327 373.579 268.367 357.159 268.517 352.569C269.297 328.789 264.937 306.149 253.837 285.059C240.327 259.399 237.227 230.479 227.777 203.559C226.527 199.989 225.147 196.469 223.147 191.069C212.017 218.529 207.297 244.629 212.777 272.329C215.647 286.869 218.027 301.469 222.587 315.639C234.387 352.269 233.147 389.289 226.297 426.639C223.057 444.319 221.197 462.259 218.957 480.109C217.267 493.639 220.317 506.819 222.617 520.019C228.007 550.939 221.657 581.209 217.427 611.559C215.557 624.979 216.287 638.359 217.007 651.729C217.677 664.189 227.047 672.499 232.827 682.509C236.627 689.089 233.917 696.939 226.857 699.759C213.997 704.899 207.497 702.839 201.607 691.269C193.277 674.909 188.627 658.209 191.467 639.169C194.527 618.699 189.047 598.419 184.977 578.389C181.207 559.839 179.797 541.379 183.127 522.679C184.217 516.569 182.397 510.799 181.207 504.919C172.457 461.649 167.937 417.849 164.657 373.889C164.397 370.359 166.287 366.039 161.797 363.599C158.267 365.229 158.877 368.399 158.977 371.029C159.827 393.439 154.867 415.239 152.287 437.289C149.337 462.489 148.367 487.969 140.627 512.459C138.677 518.629 141.357 525.039 141.937 531.339C143.597 549.109 141.617 566.629 137.497 583.879C131.367 609.549 132.037 635.489 132.357 661.609C132.537 676.069 123.737 688.459 115.307 699.899C112.017 704.359 95.1566 701.179 89.8266 696.119C83.7566 690.349 88.3066 685.309 91.7266 681.339C113.317 656.299 108.637 627.199 104.187 598.609C99.0966 565.899 97.0266 533.589 104.057 500.799C108.037 482.229 101.787 463.659 100.017 445.099C97.4766 418.479 90.1766 392.409 92.0766 365.239C93.5766 343.889 99.1766 323.599 104.577 303.109C114.007 267.389 117.757 231.599 102.577 196.269C102.167 195.309 101.607 194.419 99.8666 191.149C95.7566 204.339 91.2766 215.559 88.8466 227.209C84.6366 247.399 78.4266 266.819 69.4866 285.329C59.2966 306.409 53.8966 328.389 55.2166 351.879C55.3366 353.989 55.1066 356.119 55.0366 358.229C54.9166 361.779 55.2966 375.459 51.2566 375.779C46.7466 376.139 47.0566 361.759 46.4566 358.819C46.2666 357.869 45.7566 355.709 45.4066 353.819C45.3266 353.379 44.6866 353.339 44.5666 353.779C42.6766 360.679 44.9466 377.259 39.5466 376.659C33.1166 375.949 36.7166 360.039 34.4466 354.649C34.4266 354.609 34.3566 354.619 34.3566 354.669C33.4866 359.019 32.7866 362.749 31.9866 366.449C31.4466 368.949 30.1266 375.529 26.9766 375.359C23.8466 375.199 23.4566 368.459 23.2766 366.009C22.9866 362.019 23.1966 357.979 23.1966 352.639C23.1966 352.589 23.1266 352.579 23.1066 352.619C21.6966 354.959 20.7766 356.299 20.0566 357.739C18.6366 360.599 16.7566 370.859 11.5766 369.069C7.25656 367.579 11.2066 358.009 12.0266 354.889C13.5366 349.129 16.1166 343.659 17.9366 337.969C18.6266 335.819 20.8366 333.259 18.3166 331.159C16.3766 329.539 14.3866 331.529 12.4866 332.219C11.1566 332.699 9.86658 333.369 8.49658 333.589C5.93658 334.009 3.33659 333.799 2.25659 330.969C1.34659 328.559 3.11657 326.919 4.89657 325.789C12.0366 321.239 18.9766 316.209 26.5666 312.549C32.9066 309.489 36.6466 305.169 38.3966 298.639C39.0366 296.259 40.3866 293.959 40.5466 291.559C43.3966 249.809 63.0266 212.329 70.8666 171.869C72.5466 163.219 73.6666 154.459 75.3166 145.799C79.6666 122.899 91.5966 112.139 114.477 110.069C118.687 109.689 122.877 108.979 127.057 108.269C135.677 106.799 139.977 101.769 139.707 92.8693C139.417 82.9493 138.777 73.6593 131.747 65.1393C127.077 59.4693 124.087 51.4093 130.917 43.9593C133.797 40.8193 132.467 36.5193 132.587 32.7193C133.137 14.6493 145.377 1.93927 162.187 2.07927C178.367 2.21927 190.547 14.9493 190.977 32.4293C191.107 37.7393 192.007 42.2793 194.807 47.2593C198.477 53.7793 195.847 61.4193 190.867 66.7193C183.207 74.8693 183.817 84.9193 183.377 94.5593C183.057 101.659 187.887 106.339 194.837 107.879C199.987 109.019 205.277 109.699 210.547 110.139C230.037 111.779 244.187 122.749 247.407 141.999C253.377 177.619 261.957 212.389 275.067 246.089C279.977 258.699 279.657 272.479 281.397 285.719C283.637 302.799 293.707 312.499 308.207 319.259C310.437 320.299 312.637 321.549 314.527 323.109C317.447 325.519 324.757 331.229 323.047 334.299C320.797 338.359 314.377 333.539 310.737 332.079C308.887 331.339 306.947 329.329 305.007 331.379C303.247 333.239 304.837 335.379 305.427 337.319C307.367 343.709 310.607 349.459 311.907 356.269C312.637 360.079 315.307 369.079 311.267 370.149C306.877 371.319 304.887 361.219 303.757 358.409C303.187 356.999 302.417 355.659 301.037 352.969C300.897 352.689 300.467 352.789 300.467 353.099C300.487 358.279 300.647 361.849 300.397 365.389C300.197 368.239 300.127 378.249 296.417 378.169C293.417 378.099 292.037 368.549 291.527 366.039C291.527 366.039 290.517 355.039 289.947 353.769C289.377 352.499 288.437 356.499 288.437 356.499L288.457 356.479Z" stroke="#e5e5e5" stroke-width="2" stroke-miterlimit="10"/>
<path class="selection front-knee-right articulation" data-action="click->health-questionnaire#pushToArray" data-health-questionnaire-bodypart-param="front-knee-right" d="M211.427 480.119L185.697 480.159C181.107 480.159 177.257 484.259 178.157 488.759L183.107 514.379C183.187 514.759 183.437 517.659 183.447 518.049C183.497 519.289 183.357 520.099 183.127 522.679C182.847 525.759 181.977 529.539 181.717 532.909C181.387 537.159 184.747 540.789 189.007 540.769L216.957 540.639C221.187 540.619 224.517 537.019 224.177 532.799C223.767 527.629 222.687 520.229 221.017 510.789C219.377 501.579 218.427 497.129 218.537 487.389C218.587 483.329 215.487 480.109 211.427 480.119Z" fill="#FFFFFF" stroke="#B995D8" stroke-width="2" stroke-miterlimit="10"/>
<path class="selection front-shoulder-left articulation" data-action="click->health-questionnaire#pushToArray" data-health-questionnaire-bodypart-param="front-shoulder-left"  d="M89.6063 118.839C98.1763 111.089 114.436 110.029 114.436 110.029C120.666 109.359 122.956 108.979 127.136 108.779C128.416 108.719 129.576 109.229 130.416 110.079C131.616 111.279 131.876 113.139 131.266 114.729L100.886 193.809C100.636 194.429 99.7164 194.299 99.6564 193.629C96.1764 156.239 95.0863 131.279 90.8863 122.689C90.8863 122.689 89.1664 119.229 89.5964 118.839H89.6063Z" fill="#FFFFFF" stroke="#B995D8" stroke-width="2" stroke-linejoin="round"/>
<path class="selection front-elbow-left articulation" data-action="click->health-questionnaire#pushToArray" data-health-questionnaire-bodypart-param="front-elbow-left" d="M87.3364 217.919L64.7764 210.359C62.6464 209.649 60.3464 210.819 59.6664 212.959L50.3064 242.709C49.6464 244.799 50.7864 247.029 52.8564 247.719L77.0264 255.819C79.1964 256.549 81.5264 255.319 82.1564 253.119C83.5964 248.099 85.9364 239.899 86.5164 237.489C87.2864 234.289 88.5264 227.989 89.9264 222.739C90.4764 220.699 89.3264 218.589 87.3164 217.919H87.3364Z" fill="#FFFFFF" stroke="#B995D8" stroke-width="2" stroke-linejoin="round"/>
<path class="selection front-head" data-action="click->health-questionnaire#pushToArray" data-health-questionnaire-bodypart-param="front-head" d="M187.637 70.3386C187.637 70.3386 196.177 62.2686 196.607 54.7786C196.607 54.7786 197.087 50.0986 193.457 44.5486C191.697 41.8586 190.987 32.4186 190.987 32.4186C190.987 32.4186 191.217 2.6286 162.047 2.0086C134.477 1.4186 132.627 31.3686 132.627 31.3686C132.627 31.3686 133.097 41.1386 132.077 42.6286C130.287 45.2686 121.447 52.3386 131.747 65.1286C131.747 65.1286 135.507 70.2686 136.627 72.0486C137.637 73.6586 151.637 91.3386 161.807 91.1486C171.977 90.9586 179.907 78.6786 187.637 70.3286V70.3386Z" fill="#FFFFFF" stroke="#B995D8" stroke-width="2" stroke-linejoin="round"/>
<path class="selection front-upper-arm-left" data-action="click->health-questionnaire#pushToArray" data-health-questionnaire-bodypart-param="front-upper-arm-left" d="M86.6667 122.499C91.4267 132.409 92.3867 157.509 95.6967 193.339C95.7767 194.199 96.0067 195.039 96.3767 195.819C96.4967 196.069 96.6267 196.319 96.7767 196.559C97.3267 197.489 97.4867 198.609 97.1467 199.639L91.9767 215.299L62.1367 205.319C62.1367 205.319 68.9967 183.379 70.8767 171.869C72.7567 160.359 72.9567 159.029 75.3267 145.799C77.6967 132.569 83.2267 125.499 83.2267 125.499L85.7467 122.409C86.0367 121.979 86.5067 122.139 86.6867 122.509L86.6667 122.499Z" stroke="#B995D8" fill="#FFFFFF" stroke-width="2" stroke-linejoin="round"/>
<path class="selection front-lower-arm-left" data-action="click->health-questionnaire#pushToArray" data-health-questionnaire-bodypart-param="front-lower-arm-left" d="M52.2371 251.709L75.7971 259.589C77.9071 260.299 79.0171 262.599 78.2371 264.689C76.5271 269.239 73.4771 277.079 70.2371 283.829C66.3871 291.869 66.0171 292.449 63.2571 300.159C62.5271 302.199 60.2671 303.249 58.2371 302.489L42.5671 296.629C40.9671 296.029 40.0371 294.379 40.3271 292.689C40.4971 291.689 40.6671 290.359 40.7671 288.599C41.0671 283.439 42.5071 271.699 46.8871 254.629C47.4871 252.299 49.9471 250.959 52.2271 251.729L52.2371 251.709Z" stroke="#B995D8" fill="#FFFFFF" stroke-width="2" stroke-linejoin="round"/>
<path class="selection front-shoulder-right articulation" data-action="click->health-questionnaire#pushToArray" data-health-questionnaire-bodypart-param="front-shoulder-right" d="M234.247 118.839C225.677 111.089 209.417 110.029 209.417 110.029C203.187 109.359 200.897 108.979 196.717 108.779C195.437 108.719 194.277 109.229 193.437 110.079C192.237 111.279 191.977 113.139 192.587 114.729L222.967 193.809C223.217 194.429 224.137 194.299 224.197 193.629C227.677 156.239 228.767 131.279 232.967 122.689C232.967 122.689 234.687 119.229 234.257 118.839H234.247Z" fill="#FFFFFF" stroke="#B995D8" stroke-width="2" stroke-linejoin="round"/>
<path class="selection front-elbow-right articulation" data-action="click->health-questionnaire#pushToArray" data-health-questionnaire-bodypart-param="front-elbow-right" d="M263.587 212.699C263.007 210.779 260.987 209.729 259.087 210.359L236.527 217.919C234.387 218.639 233.117 220.999 233.697 223.179C235.077 228.349 236.577 234.369 237.337 237.499C237.917 239.919 240.207 248.249 241.647 253.259C242.277 255.459 244.667 256.549 246.837 255.829L271.377 247.669C273.517 246.959 274.617 244.679 273.787 242.589C271.757 237.459 267.957 227.219 263.597 212.699H263.587Z" fill="#FFFFFF" stroke="#B995D8" stroke-width="2" stroke-linejoin="round"/>
<path class="selection front-upper-arm-right" data-action="click->health-questionnaire#pushToArray" data-health-questionnaire-bodypart-param="front-upper-arm-right" d="M237.197 122.499C232.437 132.409 231.477 157.509 228.167 193.339C228.087 194.199 227.857 195.039 227.487 195.819C227.367 196.069 227.237 196.319 227.087 196.559C226.537 197.489 226.357 199.279 226.697 200.309L231.527 215.369L261.437 205.369C261.437 205.369 254.947 181.869 252.767 170.409C250.637 159.239 250.007 157.779 247.907 144.499C245.747 130.829 240.647 125.489 240.647 125.489L238.127 122.399C237.837 121.969 237.367 122.129 237.187 122.499H237.197Z" stroke="#B995D8" fill="#FFFFFF" stroke-width="2" stroke-linejoin="round"/>
<path class="selection front-lower-arm-right" data-action="click->health-questionnaire#pushToArray" data-health-questionnaire-bodypart-param="front-lower-arm-right" d="M271.627 251.71L248.067 259.59C245.957 260.3 244.457 262.86 245.237 264.94C246.947 269.49 249.027 275.6 252.617 282.78C256.607 290.76 257.797 292.59 260.567 300.3C261.297 302.34 263.597 303.24 265.627 302.48L281.297 296.62C282.897 296.02 283.167 294.38 282.877 292.7C282.707 291.7 282.077 289.5 281.777 287.76C279.887 276.88 280.677 268.57 277.627 254.53C277.117 252.18 273.917 250.95 271.637 251.71H271.627Z" stroke="#B995D8" fill="#FFFFFF" stroke-width="2" stroke-linejoin="round"/>
<path class="selection front-foot-right articulation" data-action="click->health-questionnaire#pushToArray" data-health-questionnaire-bodypart-param="front-foot-right" d="M195.947 632.799C193.837 632.749 192.037 634.309 191.787 636.409C191.367 639.989 190.777 645.289 190.627 648.259C190.377 653.129 190.897 662.139 193.587 671.219C193.587 671.219 198.767 689.059 205.667 697.709C205.667 697.709 209.577 702.989 216.887 702.419C221.477 702.059 229.187 699.969 232.237 695.749C235.287 691.529 235.317 686.919 232.707 682.319C230.507 678.449 224.717 670.599 224.717 670.599C224.717 670.599 216.767 660.709 216.887 649.909L216.377 637.069C216.297 634.959 214.587 633.279 212.477 633.219C207.967 633.099 200.437 632.909 195.947 632.799V632.799Z" fill="#FFFFFF" stroke="#B995D8" stroke-width="2" stroke-linejoin="round"/>
<path class="selection front-calf-right" data-action="click->health-questionnaire#pushToArray" data-health-questionnaire-bodypart-param="front-calf-right" d="M195.577 628.859L213.047 629.289C214.747 629.329 216.167 627.989 216.207 626.289C216.307 621.929 216.927 612.599 219.727 596.049C223.387 574.389 224.637 556.719 224.757 548.559C224.787 546.389 223.037 544.629 220.867 544.629L185.227 544.779C183.007 544.779 181.227 546.629 181.317 548.849C181.567 555.029 182.507 567.759 186.047 583.349C190.667 603.689 192.297 616.249 192.387 625.599C192.407 627.379 193.817 628.819 195.597 628.859H195.577Z" stroke="#B995D8" fill="#FFFFFF" stroke-width="2" stroke-linejoin="round"/>
<path class="selection front-knee-left articulation" data-action="click->health-questionnaire#pushToArray" data-health-questionnaire-bodypart-param="front-knee-left" d="M140.127 519.979C140.447 523.059 141.907 529.959 142.147 533.029C142.487 537.279 139.187 540.789 134.927 540.769L106.977 540.639C102.747 540.619 99.5174 536.979 99.8474 532.759C100.257 527.589 100.577 519.889 102.257 510.439C103.897 501.229 105.717 493.549 105.387 487.389C105.167 483.329 108.437 480.109 112.497 480.119L138.227 480.159C142.817 480.159 147.197 484.419 146.297 488.919C146.297 488.919 142.937 506.229 140.847 511.609C140.847 511.609 139.557 514.669 140.107 519.979H140.127Z" fill="#FFFFFF" stroke="#B995D8" stroke-width="2" stroke-miterlimit="10"/>
<path class="selection front-hip-left articulation" data-action="click->health-questionnaire#pushToArray" data-health-questionnaire-bodypart-param="front-hip-left" d="M156.317 391.349L98.2371 335.349C97.2871 334.429 96.9271 333.059 97.3171 331.789L101.617 314.469C102.177 312.629 104.577 311.889 106.047 313.139L160.347 359.339C161.807 360.579 162.027 362.829 160.857 364.349C160.737 364.509 160.577 364.339 160.437 364.479C159.907 365.029 159.557 365.479 159.267 366.269C159.267 366.269 158.537 367.669 159.047 371.809C159.047 371.809 159.117 384.279 158.487 390.229C158.347 391.579 157.307 392.289 156.327 391.349H156.317Z" fill="#FFFFFF" stroke="#B995D8" stroke-width="2" stroke-linejoin="round"/>
<path class="selection front-foot-left articulation" data-action="click->health-questionnaire#pushToArray" data-health-questionnaire-bodypart-param="front-foot-left" d="M117.587 696.809C128.657 682.189 131.157 671.539 131.157 671.539C132.847 666.699 132.427 654.249 132.187 649.379C132.037 646.409 132.257 640.349 132.147 636.409C132.087 634.299 130.097 632.749 127.987 632.799C123.497 632.909 115.967 633.109 111.457 633.219C109.347 633.269 108.007 634.839 107.917 636.949L107.407 645.019C106.097 659.859 99.3167 670.579 99.3167 670.579C99.3167 670.579 96.9567 675.239 89.7467 683.709C84.7967 689.519 87.0067 693.609 90.3667 696.619C90.3667 696.619 98.5567 702.959 111.617 701.809C111.617 701.809 114.297 701.409 115.447 699.669L117.317 697.109L117.577 696.799L117.587 696.809Z" fill="#FFFFFF" stroke="#B995D8" stroke-width="2" stroke-linejoin="round"/>
<path class="selection front-calf-left" data-action="click->health-questionnaire#pushToArray" data-health-questionnaire-bodypart-param="front-calf-left" d="M129.406 628.879L110.756 629.289C109.056 629.329 107.696 628.049 107.656 626.339C107.556 621.979 106.346 612.599 103.776 596.009C100.416 574.259 99.7064 556.729 99.5864 548.579C99.5564 546.409 100.896 544.609 103.066 544.619L138.706 544.769C140.926 544.769 142.506 546.769 142.416 548.999C142.166 555.179 141.256 567.869 137.606 583.409C133.316 601.699 132.696 616.169 132.386 625.779C132.326 627.559 131.166 628.839 129.386 628.879H129.406Z" stroke="#B995D8" fill="#FFFFFF" stroke-width="2" stroke-linejoin="round"/>
<path class="selection front-thigh-left" data-action="click->health-questionnaire#pushToArray" data-health-questionnaire-bodypart-param="front-thigh-left" d="M148.547 472.709C148.357 474.639 146.467 476.189 144.537 476.199L107.877 476.289C105.957 476.289 104.397 474.859 104.097 472.959C100.527 450.639 97.5469 425.319 95.9869 415.609C95.9869 415.609 90.1369 383.419 92.0769 365.049C93.9069 347.699 93.7469 350.979 94.7369 344.429C95.2469 341.079 98.2269 340.849 99.6469 342.209L154.907 395.469C155.877 396.399 157.697 397.969 157.377 400.999L154.557 421.099C154.557 421.099 153.027 428.579 148.567 472.729L148.547 472.709Z" stroke="#B995D8" fill="#FFFFFF" stroke-width="2" stroke-linejoin="round"/>
<path class="selection front-hip-right articulation" data-action="click->health-questionnaire#pushToArray" data-health-questionnaire-bodypart-param="front-hip-right" d="M167.986 391.229L226.126 335.259C227.076 334.339 227.336 332.819 226.946 331.559L222.096 314.099C221.676 312.199 219.686 311.669 218.216 312.909L163.916 359.109C162.456 360.349 161.496 362.449 162.656 363.969C162.776 364.129 163.316 364.739 163.456 364.879C163.986 365.429 164.266 366.219 164.556 367.009C164.556 367.009 165.136 368.499 164.636 372.639C164.636 372.639 165.276 384.039 165.916 389.979C166.056 391.329 167.007 392.169 167.977 391.229H167.986Z" fill="#FFFFFF" stroke="#B995D8" stroke-width="2" stroke-linejoin="round"/>
<path class="selection front-thigh-right" data-action="click->health-questionnaire#pushToArray" data-health-questionnaire-bodypart-param="front-thigh-right" d="M175.407 472.739C175.687 474.659 177.797 476.189 179.727 476.199L216.387 476.289C218.307 476.289 219.607 474.879 219.807 472.959C222.527 447.339 226.307 425.729 228.277 415.599C228.277 415.599 232.547 387.139 231.207 365.039C230.597 354.929 230.807 356.439 229.207 344.099C228.767 340.739 226.037 340.829 224.627 342.189L169.367 395.449C168.397 396.379 166.577 397.949 166.897 400.979L168.797 421.099C168.797 421.099 169.177 429.549 175.407 472.739V472.739Z" stroke="#B995D8" fill="#FFFFFF" stroke-width="2" stroke-linejoin="round"/>
<path class="selection front-torso" data-action="click->health-questionnaire#pushToArray" data-health-questionnaire-bodypart-param="front-torso" d="M189.867 118.82L219.797 196.6C220.177 197.59 220.197 198.689 219.837 199.689C218.257 204.129 213.747 217.5 211.897 230.42C208.977 250.87 211.717 265.999 211.717 265.999C211.717 265.999 216.177 291.739 219.267 303.809C219.657 305.319 219.147 306.91 217.967 307.92L164.567 353.29C163.047 354.58 160.807 354.58 159.287 353.29L105.767 307.749C104.577 306.739 104.077 305.14 104.477 303.63C106.117 297.53 110.267 281.059 111.837 265.749C113.297 251.429 113.167 239.809 111.407 227.549C111.407 227.549 109.767 214.189 103.957 199.619C103.537 198.559 103.517 197.38 103.927 196.32L133.947 118.829C134.547 117.279 136.027 116.259 137.687 116.259C146.927 116.259 176.827 116.239 186.097 116.229C187.767 116.229 189.257 117.259 189.857 118.809L189.867 118.82Z" stroke="#B995D8" fill="#FFFFFF" stroke-width="2" stroke-linejoin="round"/>
<path class="selection front-neck articulation" data-action="click->health-questionnaire#pushToArray" data-health-questionnaire-bodypart-param="front-neck" d="M183.386 95.2789C183.436 91.0889 183.636 82.5589 184.526 79.8789C184.526 79.8789 174.606 92.7689 164.056 94.8489C162.166 95.2189 160.806 95.3389 158.206 94.6189C155.896 93.9789 151.526 93.8289 138.356 80.2989C138.356 80.2989 140.146 86.3489 139.636 95.3489C139.266 101.859 135.737 104.719 133.787 105.889C133.127 106.289 132.906 107.139 133.296 107.799L135.227 111.119C135.737 111.829 136.556 112.239 137.426 112.239L186.256 112.209C187.696 112.209 188.966 111.499 189.446 110.139L190.136 108.169C190.476 107.199 190.086 106.129 189.206 105.589C188.206 104.979 186.866 103.979 185.696 102.459C184.116 100.409 183.376 97.8389 183.406 95.2589L183.386 95.2789Z" fill="#FFFFFF" stroke="#B995D8" stroke-width="2" stroke-linejoin="round"/>
<path class="selection front-hand-left articulation" data-action="click->health-questionnaire#pushToArray" data-health-questionnaire-bodypart-param="front-hand-left" d="M41.7968 300.539C39.9468 299.849 37.8268 300.649 37.0068 302.449C35.0168 306.799 31.6868 310.049 26.5568 312.519C18.9668 316.179 12.0368 321.209 4.8868 325.759C3.1068 326.889 1.33682 328.529 2.24682 330.939C3.31682 333.769 5.92681 333.979 8.48681 333.559C9.85681 333.329 11.1468 332.659 12.4768 332.189C14.3868 331.499 16.3768 329.509 18.3068 331.129C20.8268 333.229 18.6168 335.789 17.9268 337.939C16.1068 343.629 13.5268 349.099 12.0168 354.859C11.1968 357.979 7.25683 367.549 11.5668 369.039C16.7368 370.829 18.6168 360.569 20.0468 357.709C20.7668 356.269 21.6868 354.929 23.0968 352.589C23.1268 352.549 23.1868 352.559 23.1868 352.609C23.1868 357.949 22.9768 361.979 23.2668 365.979C23.4468 368.429 23.8368 375.169 26.9668 375.329C30.1168 375.489 31.4468 368.919 31.9768 366.419C32.7668 362.719 33.4768 358.989 34.3468 354.639C34.3468 354.589 34.4268 354.579 34.4468 354.619C36.7268 360.019 33.1168 375.919 39.5468 376.629C44.9468 377.229 42.6768 360.649 44.5668 353.749C44.6868 353.309 45.3168 353.349 45.4068 353.789C45.7568 355.689 46.2668 357.849 46.4568 358.799C47.0568 361.749 46.7468 376.119 51.2568 375.759C55.5268 375.419 54.8668 360.199 55.0668 357.719C55.2268 355.789 55.3068 353.859 55.2268 351.929C54.4868 334.169 56.5568 322.399 59.7168 310.979C60.2468 309.069 59.2268 307.069 57.3668 306.379L41.7868 300.539H41.7968Z" fill="#FFFFFF"  stroke="#B995D8" stroke-width="2" stroke-linejoin="round"/>
<path class="selection front-hand-right articulation" data-action="click->health-questionnaire#pushToArray" data-health-questionnaire-bodypart-param="front-hand-right" d="M285.437 299.199C288.207 304.599 293.727 312.509 308.217 319.269C310.447 320.309 312.647 321.559 314.537 323.119C317.457 325.529 324.767 331.239 323.057 334.309C320.807 338.369 314.387 333.549 310.747 332.089C308.897 331.349 306.957 329.339 305.017 331.389C303.257 333.249 304.847 335.389 305.437 337.329C307.377 343.719 310.617 349.469 311.917 356.279C312.647 360.089 315.317 369.089 311.277 370.159C306.887 371.329 304.897 361.229 303.767 358.419C303.197 357.009 302.427 355.669 301.047 352.979C300.907 352.699 300.477 352.799 300.477 353.109C300.497 358.289 300.657 361.859 300.407 365.399C300.207 368.249 300.137 378.259 296.427 378.179C293.427 378.109 292.047 368.559 291.537 366.049C291.537 366.049 290.527 355.049 289.957 353.779C289.387 352.499 288.447 356.509 288.447 356.509C287.357 360.889 287.257 376.299 284.137 376.299C276.647 376.309 280.647 359.809 278.367 355.129C278.347 355.079 278.277 355.079 278.247 355.109C275.177 358.269 275.247 371.409 272.017 372.209C266.317 373.609 268.387 357.189 268.507 352.599C269.157 328.709 265.087 314.689 263.007 307.699L285.427 299.209L285.437 299.199Z" fill="#FFFFFF" stroke="#B995D8" stroke-width="2" stroke-linejoin="round"/>
</svg>
